<?xml version="1.0" standalone="no"?>
<!DOCTYPE svg PUBLIC "-//W3C//DTD SVG 20010904//EN"
 "http://www.w3.org/TR/2001/REC-SVG-20010904/DTD/svg10.dtd">
<svg version="1.0" xmlns="http://www.w3.org/2000/svg"
 width="618.000000pt" height="618.000000pt" viewBox="0 0 618.000000 618.000000"
 preserveAspectRatio="xMidYMid meet">
<metadata>
Created by potrace 1.14, written by Peter Selinger 2001-2017
</metadata>
<g transform="translate(0.000000,618.000000) scale(0.100000,-0.100000)"
fill="#000000" stroke="none">
<path d="M2871 5139 c-461 -49 -904 -261 -1236 -594 -806 -805 -806 -2105 0
-2910 622 -622 1570 -781 2358 -396 134 65 327 188 351 223 31 44 17 101 -31
126 -37 20 -55 14 -163 -59 -115 -78 -323 -183 -440 -222 -604 -203 -1243
-104 -1750 272 -93 69 -253 223 -330 316 -303 370 -461 869 -421 1333 50 597
348 1105 842 1437 310 209 750 331 1119 311 619 -35 1152 -337 1494 -846 211
-313 333 -752 312 -1120 -17 -297 -79 -524 -213 -789 -40 -80 -73 -155 -73
-168 0 -37 42 -73 86 -73 51 0 80 35 157 193 554 1124 0 2465 -1184 2868 -272
92 -589 128 -878 98z"/>
<path d="M3627 4420 c-357 -65 -635 -322 -723 -666 -49 -197 -26 -432 61 -606
109 -218 298 -385 519 -459 329 -110 679 -26 925 223 109 110 179 231 225 391
l23 80 12 -34 c60 -172 -34 -454 -264 -789 -126 -183 -161 -273 -153 -396 6
-91 50 -186 190 -414 124 -202 157 -269 169 -344 7 -45 16 -67 35 -84 33 -29
76 -28 111 2 25 22 28 31 27 81 -2 90 -46 188 -194 435 -76 127 -146 253 -155
281 -31 91 -4 178 99 321 124 173 245 406 292 563 36 118 40 310 10 390 -28
72 -71 132 -126 171 -46 33 -48 36 -54 97 -4 34 -21 103 -37 152 -95 286 -313
494 -606 581 -69 20 -116 27 -213 29 -69 2 -147 0 -173 -5z m267 -175 c227
-40 420 -184 520 -388 60 -124 80 -219 74 -356 -9 -192 -74 -336 -213 -477
-66 -66 -97 -89 -175 -127 -127 -63 -201 -81 -330 -80 -316 0 -587 197 -687
498 -24 71 -27 95 -27 220 0 125 3 149 27 220 37 112 90 197 177 286 110 111
231 176 385 204 95 18 147 18 249 0z"/>
<path d="M3760 3965 c-85 -13 -187 -24 -227 -24 -65 -1 -73 -3 -92 -27 -21
-26 -27 -67 -15 -99 18 -47 125 -57 307 -29 253 38 318 37 408 -11 61 -31 90
-32 125 -1 36 30 38 84 5 120 -30 32 -128 75 -198 86 -82 14 -137 11 -313 -15z"/>
<path d="M3730 3600 c-82 -17 -135 -55 -178 -129 -23 -39 -27 -57 -27 -121 0
-84 16 -127 68 -180 161 -166 437 -54 437 177 0 78 -16 118 -70 177 -58 62
-150 93 -230 76z"/>
<path d="M2091 4344 c-77 -16 -201 -73 -236 -108 -47 -47 -24 -126 41 -142 19
-5 48 5 107 34 101 51 180 65 297 53 102 -11 186 -41 243 -87 87 -70 132 -78
173 -33 25 28 24 91 -1 119 -33 37 -150 109 -218 135 -115 43 -286 55 -406 29z"/>
<path d="M2240 3765 c-57 -18 -124 -75 -153 -129 -29 -54 -31 -174 -3 -226 26
-49 74 -98 121 -123 59 -32 164 -30 229 3 181 92 186 356 8 453 -61 33 -141
42 -202 22z"/>
<path d="M2480 2469 c-89 -17 -121 -101 -59 -154 30 -24 36 -25 88 -18 256 37
895 -53 1094 -153 62 -31 107 -31 134 -1 30 33 34 54 19 92 -39 91 -417 194
-871 235 -130 12 -341 11 -405 -1z"/>
</g>
</svg>
